<?xml version="1.0"?><svg version="1.2" baseProfile="tiny-ps" viewBox="0 0 300 300" xmlns="http://www.w3.org/2000/svg" xmlns:xlink="http://www.w3.org/1999/xlink"><title>shiraz store</title><g><g fill="#d8d8d8" transform="matrix(.1 0 0 -.1 0 300)"><path d="M1326 2799c-202-28-402-105-576-222l-75-51-97-94-96-93-60-85c-104-146-177-316-218-505l-18-84v-330l18-84c41-189 114-359 218-505l60-85 96-93 97-94 75-51c149-100 318-171 500-210l85-18h330l85 18c182 39 351 110 500 210l75 51 97 94 96 93 60 85c104 146 177 316 218 505l18 84v330l-18 84c-41 189-114 359-218 505l-60 85-96 93-97 94-75 51c-148 100-320 172-495 208l-80 17-140 3-140 4-69-10z"/></g><g fill="#f1891b" transform="matrix(.1 0 0 -.1 0 300)"><path d="M1740 2531c-147-46-258-162-295-309l-16-62 3-42 3-43 30 3c17 2 53 9 80 17l51 14 56 41 56 40 35 48c44 60 75 136 83 206l7 54-7 26-6 26-13-1c-6 0-37-9-67-18zm-25-446c-38-7-99-25-134-40l-65-27-50-5-51-5-76 31c-42 17-101 36-130 42l-53 12-69-6-69-6-63-30-64-29-47-44c-26-23-65-70-86-102l-38-59-26-81-26-81-5-111-6-111 12-83 13-84 33-102c44-134 91-235 158-337 67-103 112-149 180-184l52-27h65l65 1 75 34 75 33h160l70-31 70-31 47-7 46-7 55 16 55 16 43 36c24 20 68 66 97 103l53 66 43 90c40 82 86 210 86 239v11l-56 29-55 29-34 42c-19 23-47 68-62 101l-28 59v220l32 65 32 65 47 47c26 26 56 50 66 54 27 8 23 16-32 71l-50 50-63 31-62 31-65 10c-77 13-75 13-165-4z"/></g><g fill="#919190" transform="matrix(.1 0 0 -.1 0 300)"><path d="M1740 2531c-147-46-258-162-295-309l-16-62 3-42 3-43 30 3c17 2 53 9 80 17l51 14 56 41 56 40 35 48c44 60 75 136 83 206l7 54-7 26-6 26-13-1c-6 0-37-9-67-18zm-25-446c-38-7-99-25-134-40l-65-27-50-5-51-5-76 31c-42 17-101 36-130 42l-53 12-69-6-69-6-63-30-64-29-47-44c-26-23-65-70-86-102l-38-59-26-81-26-81-5-111-6-111 12-83 13-84 33-102c44-134 91-235 158-337 67-103 112-149 180-184l52-27h65l65 1 71 31 72 32 53 6 54 6 43-10 43-10-9 11c-5 7-37 81-71 165l-61 153v27c-1 85-70 266-132 344l-32 41 14-6c8-3 40-13 70-23l54-17 75 6 76 6 80 41c44 22 113 65 154 95s80 55 87 55c17 0 54-36 54-51 0-26-45-80-122-149-45-40-99-93-120-118l-37-46-16-45-15-45V904l20-109c11-60 20-117 20-127v-18l-17-1-18-1 30-13c17-7 51-16 77-20l47-7 55 16 54 16 43 36c24 20 68 66 97 103l53 66 43 90c40 82 86 210 86 239v11l-56 29-55 29-34 42c-19 23-47 68-62 101l-28 59v220l32 65 32 65 47 47c26 26 56 50 66 54 27 8 23 16-32 71l-50 50-63 31-62 31-65 10c-77 13-75 13-165-4zm-184-338c18-12 44-38 56-56l23-34v-94l-23-34c-12-18-38-44-56-56l-34-23h-82l-35 19-35 18-23 44-24 44 5 48 4 48 20 27c11 15 35 37 53 50l33 22h84l34-23z"/></g><g fill="#0571b6" transform="matrix(.1 0 0 -.1 0 300)"><path d="M1719 2516c-82-33-123-61-173-117l-45-50-27-57-27-57-5-77-5-78h21c11 0 47 8 80 18l59 19 46 32c56 38 105 98 143 171l27 55 5 83 5 82h-24c-13 0-49-11-80-24zm-689-444-65-17-47-27c-99-59-170-152-214-281l-25-72-9-90-9-90 10-95c22-219 120-464 256-642l44-58 42-28c23-16 60-35 81-42l39-13 56 6 56 5 60 28 60 28h96l97 1-8 20c-5 11-32 76-60 145l-52 125-14 75c-26 141-69 242-135 321l-38 47 72-25 72-25 80 5 79 5 81 41c44 23 113 66 154 96s80 55 87 55c17 0 54-36 54-51 0-26-45-80-122-149-45-40-99-93-120-118l-37-46-16-45-15-45V907l22-124 22-124-12-8-13-8 39-11c49-15 127-14 169 1 17 7 51 26 75 43l43 30 57 75c77 102 138 225 173 351l13 47-43 21-43 21-47 50-46 50-26 55-25 55-11 64-11 64 12 63 12 63 30 62 31 62 50 45c28 25 55 46 60 46 32 0-23 66-94 113l-53 35-65 22-64 22-90-5-90-5-70-27c-38-14-96-34-128-42l-59-16-81 31c-90 34-198 62-237 61-14 0-54-8-90-17zm501-325c18-12 44-38 56-56l23-34v-94l-23-34c-12-18-38-44-56-56l-34-23h-82l-35 19-35 18-23 44-24 44 5 48 4 48 20 27c11 15 35 37 53 50l33 22h84l34-23z"/></g><g fill="#3d5e34" transform="matrix(.1 0 0 -.1 0 300)"><path d="M1719 2516c-82-33-123-61-173-117l-45-50-27-57-27-57-5-77-5-78h21c11 0 47 8 80 18l59 19 46 32c56 38 105 98 143 171l27 55 5 83 5 82h-24c-13 0-49-11-80-24zm-689-444-65-17-47-27c-99-59-170-152-214-281l-25-72-9-90-9-90 10-95c22-220 120-464 256-643l44-57 9 5 8 5 7 89 7 90-11 33-11 34-65 64c-66 65-77 86-51 96l15 6 56-43 56-42 52-5 52-4 59 26c33 14 61 25 63 23s-17-44-42-93l-45-89-15-129c-8-71-12-132-9-137l5-9h47c26 0 64 5 85 11l38 10-10 13-11 13 10 54c5 30 14 103 20 163l11 109-11 76-12 76-30 57-30 57-57 53c-32 29-81 74-109 101l-52 47v23c0 29 18 47 45 47h21l100-59 101-60 64-21 64-22 80 5 79 5 81 41c44 23 113 66 154 96s80 55 87 55c17 0 54-36 54-51 0-26-45-80-122-149-45-40-99-93-120-118l-37-46-16-45-15-45V907l22-124 22-124-12-8-13-8 39-11c49-15 127-14 169 1 17 7 51 26 75 43l43 30 57 75c77 102 138 225 173 351l13 47-43 21-43 21-47 50-46 50-26 55-25 55-11 64-11 64 12 63 12 63 30 62 31 62 50 45c28 25 55 46 60 46 32 0-23 66-94 113l-53 35-65 22-64 22-90-5-90-5-70-27c-38-14-96-34-128-42l-59-16-81 31c-90 34-198 62-237 61-14 0-54-8-90-17zm501-325c18-12 44-38 56-56l23-34v-94l-23-34c-12-18-38-44-56-56l-34-23h-82l-35 19-35 18-23 44-24 44 5 48 4 48 20 27c11 15 35 37 53 50l33 22h84l34-23zm-396-532 25-24v-58l-21-27-20-26h-35c-20 0-44 4-54 10l-18 10-12 34-11 35 12 23c7 13 19 28 28 35l16 12 33 1h33l24-25zm286-312c-7-43-22-105-32-138s-19-64-19-70v-10h188l-15 35c-8 19-30 76-50 125-19 50-40 100-47 113l-12 23-13-78z"/></g><g fill="#171818" transform="matrix(.1 0 0 -.1 0 300)"><path d="m1724 2516-62-23-51-37-51-38-40-56-40-56-20-64-20-64v-100l36 6c19 4 60 17 91 29l56 21 58 53 58 54 25 44c32 53 56 144 56 207v48l-17-1c-10 0-46-10-79-23zm-25-441c-30-8-90-27-132-44l-78-31h-76l-69 28c-38 16-93 35-123 42l-53 12-73-4-72-5-64-30-64-31-44-38-44-38-39-60-38-59-26-81-26-81-5-111-6-111 12-84 12-84 35-104c59-177 164-372 234-436l19-17 5 23c3 13 7 50 10 82l6 57-11 44-11 44-64 61-64 60v41h37l39-31c22-17 51-37 66-45l27-14h38l38 1 65 29c36 16 66 28 67 26 1-1-20-47-47-102l-50-99-10-105c-6-58-13-115-16-127l-4-22 34-6 34-7 57 12 56 12-10 12-11 13 16 114 16 114-4 115-4 115-26 57-26 57-54 53c-29 29-81 78-116 108l-62 55v25c0 14 4 31 9 39l9 14h50l83-50c104-61 174-91 240-103l52-10 60 10 60 9 61 29c33 16 99 57 146 91l85 61h44l15-16 16-15v-54l-128-125-128-125-24-50-25-50 1-125V885l23-114 22-114-12-7-12-8 52-11c61-13 98-14 105-3 2 4-2 64-10 132l-15 125-29 60c-16 33-40 79-54 102l-27 42 73-26 73-25 40 5 40 4 56 27c31 14 63 26 72 26h17v-29l-60-51-59-52-12-36-12-35 7-101c4-56 11-105 15-109l8-8 54 59c30 33 76 97 103 142l48 82 34 94c19 52 34 101 34 109v14l-46 23-47 23-40 45-40 45-31 65-30 65-1 110v110l27 57c36 77 72 123 127 160l45 31-57 53-56 52-55 26c-97 46-193 56-297 31zm-150-332 33-26 20-44 20-44-7-39-7-40-21-31c-12-18-34-41-50-53l-28-20h-108l-28 20c-16 12-38 36-50 54l-23 33v108l14 27c19 37 48 61 93 78l38 14 35-6 35-6 34-25zm-409-531 20-25v-65l-31-26-31-26h-45l-26 20-26 21-7 33-6 34 12 22 12 22 30 12 30 13 24-5 24-4 20-26zm750 0 20-25v-54l-21-27-20-26h-79l-20 20-20 20v34c0 19 3 42 6 51l7 17 29 13 30 12 24-5 24-4 20-26zm-465-297c-3-31-17-93-31-138-13-45-24-85-24-88 0-4 21-2 48 2l47 9 44-6 44-7-6 14c-3 8-28 70-56 138s-53 126-55 128-7-21-11-52z"/></g></g></svg>
